<svg width="512" height="512" xmlns="http://www.w3.org/2000/svg">

 <g>
  <title>background</title>
  <rect fill="none" id="canvas_background" height="402" width="582" y="-1" x="-1"/>
 </g>
 <g>
  <title>Layer 1</title>
  <path opacity="0.4" stroke="null" id="svg_2" fill="#347AB4" d="m259.73805,282.922172l105.054,0c29.216,0 52.529,-24.101 52.529,-53.414l0,-100.235c0,-28.525 -24.002,-49.871 -52.529,-54.691c-35.214,-5.804 -73.478,-5.509 -105.054,0.097c-44.462,7.87 -52.527,24.298 -52.527,54.693l0,21.453l105.152,0l0,31.959l-144.597,0c-30.591,0 -57.349,18.394 -65.709,53.315c-9.64,40.035 -10.033,65.02 0,106.826c7.476,31.085 25.28,53.314 55.872,53.314l36.101,0l0,-48.001c-0.001,-34.723 30.001,-65.316 65.708,-65.316l0,0z"/>
  <path opacity="0.5" id="svg_5" fill="#FFFFFF" d="m256,140.785541c-10.479,0 -18.976,-8.591 -18.976,-19.164c0.095,-10.668 8.496,-19.259 18.976,-19.259c10.385,0 18.976,8.685 18.976,19.259c0,10.573 -8.496,19.164 -18.976,19.164z"/>
  <path transform="rotate(180 255.99996948242185,273.02880859375) " id="svg_3" fill="#FFCA1D" d="m409.591739,162.212294c-7.575,-30.395 -21.935,-53.315 -52.527,-53.315l-39.443,0l0,46.626c0,36.199 -30.692,66.691 -65.71,66.691l-105.055,0c-28.724,0 -52.528,24.594 -52.528,53.414l0,100.138c0,28.524 24.788,45.246 52.528,53.413c33.247,9.737 65.215,11.509 105.054,0c26.462,-7.675 52.529,-23.116 52.529,-53.413l0,-20.997l-104.956,0l0,-32.417l157.58,0c30.593,0 41.904,-21.346 52.527,-53.314c11.018,-32.954 10.527,-64.628 0.001,-106.826l0,0z"/>
  <path id="svg_4" fill="#FFFFFF" d="m255.999501,176.866736c-10.479,0 -18.975,-8.591 -18.975,-19.164c0.094,-10.668 8.496,-19.259 18.975,-19.259c10.385,0 18.976,8.685 18.976,19.259c-0.001,10.573 -8.497,19.164 -18.976,19.164z"/>
 </g>
</svg>